<svg width="21.712891" height="21.170013" viewBox="0 0 21.7129 21.17" fill="none" xmlns="http://www.w3.org/2000/svg" xmlns:xlink="http://www.w3.org/1999/xlink">
	<desc>
			Created with Pixso.
	</desc>
	<defs/>
	<path id="monetization_on" d="M9.87939 17.9945L11.7793 17.9945L11.7793 16.6714C12.6838 16.5126 13.4619 16.1686 14.1133 15.6393C14.7646 15.1101 15.0903 14.325 15.0903 13.2842C15.0903 12.5432 14.8733 11.864 14.439 11.2466C14.0049 10.6291 13.1362 10.091 11.8335 9.63235C10.7478 9.27951 9.99683 8.97079 9.58081 8.70618C9.16455 8.44153 8.95654 8.0799 8.95654 7.62122C8.95654 7.16251 9.12402 6.80087 9.45874 6.53622C9.79346 6.27161 10.2773 6.13931 10.9106 6.13931C11.4897 6.13931 11.9421 6.27603 12.2678 6.54947C12.5935 6.82291 12.8286 7.16251 12.9734 7.56827L14.7104 6.88025C14.5115 6.26279 14.145 5.72473 13.6113 5.26605C13.0774 4.80734 12.4849 4.55154 11.8335 4.49863L11.8335 3.17551L9.93359 3.17551L9.93359 4.49863C9.02881 4.69269 8.32324 5.08081 7.81665 5.66296C7.31006 6.24515 7.05664 6.89789 7.05664 7.62122C7.05664 8.45035 7.30542 9.12073 7.80298 9.63235C8.30054 10.144 9.08325 10.585 10.1506 10.9555C11.2908 11.3612 12.0823 11.7229 12.5256 12.0404C12.969 12.358 13.1904 12.7726 13.1904 13.2842C13.1904 13.8664 12.978 14.2942 12.5527 14.5676C12.1274 14.8411 11.6165 14.9778 11.0193 14.9778C10.4221 14.9778 9.89282 14.7969 9.4314 14.4353C8.97021 14.0736 8.63086 13.5312 8.41382 12.8079L6.62231 13.4959C6.87573 14.3427 7.26929 15.0263 7.80298 15.5467C8.33691 16.0671 9.02881 16.4244 9.87939 16.6184L9.87939 17.9945ZM10.8564 21.17C9.35449 21.17 7.94336 20.8922 6.62231 20.3364C5.30151 19.7807 4.15259 19.0266 3.17554 18.0739C2.19849 17.1212 1.4248 16.001 0.85498 14.7132C0.284912 13.4253 0 12.0493 0 10.585C0 9.12073 0.284912 7.74469 0.85498 6.45685C1.4248 5.16901 2.19849 4.04877 3.17554 3.0961C4.15259 2.14346 5.30151 1.38928 6.62231 0.833557C7.94336 0.277863 9.35449 0 10.8564 0C12.3582 0 13.7695 0.277863 15.0903 0.833557C16.4114 1.38928 17.5603 2.14346 18.5374 3.0961C19.5144 4.04877 20.2878 5.16901 20.8579 6.45685C21.4277 7.74469 21.7129 9.12073 21.7129 10.585C21.7129 12.0493 21.4277 13.4253 20.8579 14.7132C20.2878 16.001 19.5144 17.1212 18.5374 18.0739C17.5603 19.0266 16.4114 19.7807 15.0903 20.3364C13.7695 20.8922 12.3582 21.17 10.8564 21.17Z" fill="#FFFFFF" fill-opacity="1.000000" fill-rule="nonzero"/>
</svg>
